<svg id="Component_8_1" data-name="Component 8 – 1" xmlns="http://www.w3.org/2000/svg" width="648.116" height="634.932" viewBox="0 0 648.116 634.932">
  <rect id="Rectangle_36" data-name="Rectangle 36" width="193.917" height="193.917" transform="translate(297.823 634.932) rotate(-135)" fill="#ffa800"/>
  <rect id="Rectangle_37" data-name="Rectangle 37" width="193.917" height="193.917" transform="translate(510.996 556.949) rotate(-135)" fill="#aeb0b3"/>
  <rect id="Rectangle_38" data-name="Rectangle 38" width="193.917" height="193.917" transform="translate(303.472 274.24) rotate(-135)" fill="#ef5713"/>
  <rect id="Rectangle_39" data-name="Rectangle 39" width="129.701" height="129.701" transform="translate(152.055 490.033) rotate(-135)" fill="#ef5713"/>
  <rect id="Rectangle_40" data-name="Rectangle 40" width="129.701" height="129.701" transform="translate(433.328 343.995) rotate(-135)" fill="#562519"/>
  <rect id="Rectangle_41" data-name="Rectangle 41" width="84.203" height="84.203" transform="translate(365.761 411.698) rotate(-135)" fill="#ef5713"/>
  <rect id="Rectangle_42" data-name="Rectangle 42" width="107.007" height="107.007" transform="translate(251.884 390.237) rotate(-135)" fill="#aeb0b3"/>
  <rect id="Rectangle_43" data-name="Rectangle 43" width="107.007" height="107.007" transform="translate(533.06 244.238) rotate(-135)" fill="#ffa800"/>
  <rect id="Rectangle_44" data-name="Rectangle 44" width="73.854" height="73.854" transform="translate(52.223 510.876) rotate(-135)" fill="#562519"/>
  <rect id="Rectangle_45" data-name="Rectangle 45" width="56.501" height="56.501" transform="translate(443.456 585.503) rotate(-135)" fill="#ffa800"/>
  <rect id="Rectangle_46" data-name="Rectangle 46" width="56.501" height="56.501" transform="translate(558.77 314.721) rotate(-135)" fill="#562519"/>
  <rect id="Rectangle_47" data-name="Rectangle 47" width="34.003" height="34.003" transform="translate(333.446 308.74) rotate(-135)" fill="#aeb0b3"/>
  <rect id="Rectangle_48" data-name="Rectangle 48" width="34.003" height="34.003" transform="translate(395.274 601.843) rotate(-135)" fill="#aeb0b3"/>
  <rect id="Rectangle_49" data-name="Rectangle 49" width="34.003" height="34.003" transform="translate(219.743 254.888) rotate(-135)" fill="#ef5713"/>
  <rect id="Rectangle_50" data-name="Rectangle 50" width="34.003" height="34.003" transform="translate(112.606 514.821) rotate(-135)" fill="#ffa800"/>
  <rect id="Rectangle_51" data-name="Rectangle 51" width="61.794" height="61.794" transform="translate(168.136 306.495) rotate(-135)" fill="#aeb0b3"/>
</svg>
