<svg xmlns="http://www.w3.org/2000/svg" width="13.518" height="12.472" viewBox="0 0 13.518 12.472">
  <path id="Path_80" data-name="Path 80" d="M146.22,156.04h-3.645a.371.371,0,0,1-.371-.371v-2.842H140.6v2.842a.371.371,0,0,1-.371.371h-3.645a.371.371,0,0,1-.371-.371v-5.689h-1.2a.371.371,0,0,1-.246-.648l6.388-5.671a.371.371,0,0,1,.492,0l1.966,1.745v-.563a.371.371,0,0,1,.371-.371H145.7a.371.371,0,0,1,.371.371v2.746l1.963,1.743a.371.371,0,0,1-.246.648h-1.2v5.689A.371.371,0,0,1,146.22,156.04Zm-3.275-.741h2.9V149.61a.371.371,0,0,1,.371-.371h.593l-1.358-1.205a.37.37,0,0,1-.125-.277v-2.542h-.976v1.017a.371.371,0,0,1-.617.277l-2.337-2.074-5.412,4.8h.593a.371.371,0,0,1,.371.371V155.3h2.9v-2.842a.371.371,0,0,1,.371-.371h2.348a.371.371,0,0,1,.371.371Z" transform="translate(-134.641 -143.568)" fill="#562519"/>
</svg>
