<svg id="LOGO" xmlns="http://www.w3.org/2000/svg" width="234" height="71.922" viewBox="0 0 234 71.922">
  <g id="Group_67" data-name="Group 67" transform="translate(67.513 14.102)">
    <g id="Group_65" data-name="Group 65">
      <path id="Path_69" data-name="Path 69" d="M1465.568,3326.2h6.087v42.665h-6.087Z" transform="translate(-1465.568 -3326.202)" fill="#fff"/>
      <path id="Path_70" data-name="Path 70" d="M1493.851,3370.993q-6.549,0-9.853-2.2t-3.305-7.536V3340.1h6.087v19.94a16.389,16.389,0,0,0,.174,2.551,3.449,3.449,0,0,0,.869,1.854,4.313,4.313,0,0,0,2.116,1.131,15.967,15.967,0,0,0,3.912.375,15.6,15.6,0,0,0,3.884-.375,4.293,4.293,0,0,0,2.087-1.131,3.449,3.449,0,0,0,.869-1.854,16.388,16.388,0,0,0,.175-2.551V3340.1h6.087v21.158q0,5.333-3.3,7.536T1493.851,3370.993Z" transform="translate(-1467.882 -3328.328)" fill="#fff"/>
      <path id="Path_71" data-name="Path 71" d="M1519.634,3370.993v-21.159q0-5.331,3.043-7.536t9.014-2.2a15.633,15.633,0,0,1,5.449.9,3.853,3.853,0,0,0,7.188,0,15.641,15.641,0,0,1,5.449-.9q5.971,0,9.043,2.2t3.073,7.536v21.159h-6.087v-19.942a19.948,19.948,0,0,0-.145-2.55,3.364,3.364,0,0,0-2.551-2.985,11.548,11.548,0,0,0-3.333-.376,12.26,12.26,0,0,0-3.131.319,3.838,3.838,0,0,0-1.8.985,3.284,3.284,0,0,0-.84,1.623,10.505,10.505,0,0,0-.2,2.173v20.753h-6.086v-19.942a19.993,19.993,0,0,0-.145-2.55,3.365,3.365,0,0,0-2.55-2.985,14.818,14.818,0,0,0-6.638,0,3.493,3.493,0,0,0-1.8,1.131,3.784,3.784,0,0,0-.724,1.854,19.626,19.626,0,0,0-.146,2.55v19.942Z" transform="translate(-1473.841 -3328.328)" fill="#fff"/>
      <path id="Path_72" data-name="Path 72" d="M1584.158,3330.028a3.267,3.267,0,1,1-.9-2.927A4.023,4.023,0,0,1,1584.158,3330.028Zm-6.839,7.973h6.085v30.866h-6.085Z" transform="translate(-1482.544 -3326.202)" fill="#fff"/>
      <path id="Path_73" data-name="Path 73" d="M1592.588,3370.993v-21.159q0-5.218,3.218-7.478t10.057-2.26q6.839,0,10.057,2.26t3.217,7.478v21.159h-6.086v-19.942a16.6,16.6,0,0,0-.173-2.55,3.466,3.466,0,0,0-.87-1.854,4.342,4.342,0,0,0-2.145-1.131,21.437,21.437,0,0,0-8,0,4.349,4.349,0,0,0-2.145,1.131,3.459,3.459,0,0,0-.869,1.854,16.52,16.52,0,0,0-.174,2.55v19.942Z" transform="translate(-1485.004 -3328.328)" fill="#fff"/>
    </g>
    <g id="Group_66" data-name="Group 66" transform="translate(139.717 11.787)">
      <path id="Path_74" data-name="Path 74" d="M1649.986,3340.794a9.172,9.172,0,0,1,4.162,2.277,9.49,9.49,0,0,1,2.39,4.275,24.816,24.816,0,0,1,.759,6.664V3371h-5.961v-2.307a8.682,8.682,0,0,1-2.952,1.66,13.494,13.494,0,0,1-4.472.647,21.786,21.786,0,0,1-6.636-.845,8.9,8.9,0,0,1-4.077-2.559,9.766,9.766,0,0,1-2.081-4.387,29.95,29.95,0,0,1-.59-6.383v-2.531a27.2,27.2,0,0,1,.73-6.89,9.641,9.641,0,0,1,2.334-4.358,8.655,8.655,0,0,1,4.133-2.277,25.1,25.1,0,0,1,6.13-.647A24.048,24.048,0,0,1,1649.986,3340.794Zm-2.418,25.027a4.328,4.328,0,0,0,2.305-1.266,5.284,5.284,0,0,0,1.182-2.5,19.953,19.953,0,0,0,.337-4.049v-3.994a28.933,28.933,0,0,0-.309-4.752,5.476,5.476,0,0,0-1.153-2.727,4.1,4.1,0,0,0-2.306-1.266,22.611,22.611,0,0,0-7.452,0,3.88,3.88,0,0,0-2.25,1.293,5.736,5.736,0,0,0-1.1,2.813,34.108,34.108,0,0,0-.28,4.921v2.531a36.522,36.522,0,0,0,.253,4.809,5.717,5.717,0,0,0,1.068,2.84,3.951,3.951,0,0,0,2.25,1.35,17.206,17.206,0,0,0,3.8.337A16.643,16.643,0,0,0,1647.568,3365.822Z" transform="translate(-1630.527 -3340.119)" fill="#fff"/>
    </g>
  </g>
  <path id="Path_75" data-name="Path 75" d="M1435.413,3335.228v21.106l-14.606-8.581v3.1l-3.146,1.849v20.427l23.468-13.788v-27.471Z" transform="translate(-1390.725 -3312.967)" fill="#fff"/>
  <g id="Group_68" data-name="Group 68" transform="translate(0 28.554)">
    <path id="Path_76" data-name="Path 76" d="M1390.062,3367.8v-22.068l-4.2-2.471v28.87l24.673,14.5v-28.87l-1.691-.994Z" transform="translate(-1385.859 -3343.265)" fill="#fff"/>
  </g>
  <path id="Path_77" data-name="Path 77" d="M1392.111,3336.16v27.471l23.467-13.79v-3.12l-10.068-5.917v-12.52Z" transform="translate(-1386.815 -3312.418)" fill="#fff"/>
  <path id="Path_78" data-name="Path 78" d="M1432.957,3323.341l-23.468-13.789v27.471l23.468,13.789Z" transform="translate(-1389.475 -3309.552)" fill="#fff"/>
</svg>
